Coordinates
version=1
nRows=15
nColumns=42
inDegrees=yes

Units are S.I. units (second, meters, Newtons, ...)
If the header above contains a line with 'inDegrees', this indicates whether rotational values are in degrees (yes) or radians (no).

endheader
time	pelvis_tilt	pelvis_list	pelvis_rotation	pelvis_tx	pelvis_ty	pelvis_tz	hip_flexion_r	hip_adduction_r	hip_rotation_r	knee_angle_r	knee_adduction_r	knee_angle_r_beta	ankle_angle_r	subtalar_angle_r	mtp_angle_r	hip_flexion_l	hip_adduction_l	hip_rotation_l	knee_angle_l	knee_adduction_l	knee_angle_l_beta	ankle_angle_l	subtalar_angle_l	mtp_angle_l	lumbar_extension	lumbar_bending	lumbar_rotation	arm_flex_r	arm_add_r	arm_rot_r	elbow_flex_r	pro_sup_r	wrist_flex_r	wrist_dev_r	arm_flex_l	arm_add_l	arm_rot_l	elbow_flex_l	pro_sup_l	wrist_flex_l	wrist_dev_l
      1.20000000	     14.53566521	      1.05861941	     -8.34354012	      0.35138106	      0.98186417	     -0.09652212	     -9.16742101	     -3.20592492	     -3.96767832	     63.73455576	     -3.77136723	      1.11237785	      3.16640654	     -4.71600217	     -7.58572774	     -2.75443724	      5.53361693	     -8.56389129	     18.15946759	      0.80732857	      0.31694250	      5.89056301	      5.04606002	     -7.58572774	    -32.84965729	     -1.81742075	      7.87868345	     -1.30417729	    -22.98995469	     -3.66869113	     72.43331241	     90.00000001	      0.00000000	      0.00000000	     -3.38475964	    -19.18190612	      4.27049147	     54.50738198	     90.00000001	      0.00000000	      0.00000000
      1.21000000	     14.54868102	      0.94689206	     -8.04973894	      0.36457883	      0.98416809	     -0.09679944	     -7.55927371	     -3.01304507	     -4.48228132	     63.73531138	     -4.01047851	      1.11239103	      4.40347880	     -4.45894334	     -7.58181034	     -4.29432276	      5.55709833	     -8.04485594	     16.83642311	      0.92821475	      0.29385102	      5.94258796	      5.24003906	     -7.58181034	    -32.86296100	     -1.46101891	      7.61200981	     -1.63760226	    -23.06549145	     -3.93207826	     72.52802404	     90.00000001	      0.00000000	      0.00000000	     -2.85169647	    -19.32794928	      4.08825754	     55.23719498	     90.00000001	      0.00000000	      0.00000000
      1.22000000	     14.31022439	      0.74301947	     -7.72374021	      0.37746993	      0.98584806	     -0.09704991	     -5.68721004	     -2.65356967	     -4.74542337	     63.45360037	     -3.99842728	      1.10747425	      5.31495239	     -4.56473065	     -7.58065657	     -5.36415989	      5.43027199	     -8.07268613	     15.91044839	      0.84801594	      0.27768971	      6.12198199	      5.60637476	     -7.58065657	    -32.64047122	     -0.97828369	      7.38566790	     -1.93313458	    -23.21787305	     -4.12265042	     72.55409705	     90.00000001	      0.00000000	      0.00000000	     -2.31068917	    -19.48165733	      3.92597844	     55.92100625	     90.00000001	      0.00000000	      0.00000000
      1.23000000	     14.46323765	      0.68465136	     -7.40339773	      0.39060571	      0.98781395	     -0.09722113	     -4.36914848	     -2.54131833	     -5.02553128	     62.69764333	     -3.92227150	      1.09428031	      6.41372724	     -4.32051194	     -7.57745872	     -7.13393623	      5.50431909	     -7.67929873	     14.35805932	      0.91620339	      0.25059541	      6.19171132	      6.57153264	     -7.57745872	    -32.80034885	     -0.71164600	      7.12594413	     -2.27521255	    -23.23103753	     -4.53067430	     72.71059110	     90.00000001	      0.00000000	      0.00000000	     -1.75294896	    -19.69626694	      3.77746316	     56.79188037	     90.00000001	      0.00000000	      0.00000000
      1.24000000	     14.14710097	      0.55677431	     -7.04558105	      0.40338361	      0.98874191	     -0.09747531	     -2.50700817	     -2.24965053	     -5.10809986	     61.81801854	     -3.70310737	      1.07892796	      7.12528350	     -4.45099725	     -7.57634475	     -8.08694653	      5.44730132	     -7.79024393	     13.43189106	      0.76421986	      0.23443072	      6.39991999	      7.04369038	     -7.57634475	    -32.48630482	     -0.30028995	      6.87033380	     -2.56417471	    -23.34320118	     -4.76583236	     72.72769399	     90.00000001	      0.00000000	      0.00000000	     -1.19777686	    -19.89179541	      3.64860130	     57.54260865	     90.00000001	      0.00000000	      0.00000000
      1.25000000	     14.26011698	      0.47033236	     -6.74009627	      0.41637082	      0.99002325	     -0.09745327	     -1.27436227	     -2.10055622	     -4.82704176	     60.51300134	     -3.09196228	      1.05615111	      7.70819158	     -4.85513622	     -7.57403953	     -9.74182554	      5.43594800	     -7.63055269	     12.01908918	      0.80713603	      0.20977268	      6.63546244	      8.29765407	     -7.57403953	    -32.61523072	     -0.04371214	      6.66791268	     -2.87954447	    -23.33590740	     -5.23554942	     72.84997855	     90.00000001	      0.00000000	      0.00000000	     -0.59021315	    -20.14097695	      3.58725691	     58.43708162	     90.00000001	      0.00000000	      0.00000000
      1.26000000	     13.94087398	      0.42659540	     -6.39061798	      0.42913952	      0.99025884	     -0.09758435	      0.46614240	     -1.92040040	     -4.68089526	     59.11852754	     -2.67350913	      1.03181295	      8.11984761	     -5.08487693	     -7.57297349	    -10.63083987	      5.44565153	     -7.79713595	     11.19386306	      0.66119006	      0.19536977	      6.92234386	      8.75441564	     -7.57297349	    -32.27907877	      0.24801340	      6.40625152	     -3.16872811	    -23.40411115	     -5.48061544	     72.85474723	     90.00000001	      0.00000000	      0.00000000	      0.00546775	    -20.35530253	      3.52673984	     59.21345357	     90.00000001	      0.00000000	      0.00000000
      1.27000000	     14.26163649	      0.19912518	     -6.15936585	      0.44219335	      0.99123894	     -0.09716685	      1.24054125	     -1.58688588	     -3.65812435	     57.20047942	     -1.53691055	      0.99833670	      7.96053730	     -6.68088194	     -7.56979558	    -12.55428024	      5.23983799	     -7.67663185	      9.76045075	      0.82221082	      0.17035200	      7.17726793	     10.01053701	     -7.56979558	    -32.63803796	      0.55096956	      6.38699810	     -3.51426130	    -23.39779560	     -6.02110888	     73.03258386	     90.00000001	      0.00000000	      0.00000000	      0.70532351	    -20.65890893	      3.67356703	     60.11972492	     90.00000001	      0.00000000	      0.00000000
      1.28000000	     13.88789414	      0.35380422	     -5.85814104	      0.45497923	      0.99059487	     -0.09719200	      2.96797511	     -1.67065932	     -3.51261314	     55.45994727	     -1.15346274	      0.96795868	      8.17089070	     -6.77036348	     -7.56898852	    -13.21337206	      5.40440305	     -7.89698461	      9.29660818	      0.76152893	      0.16225642	      7.53266213	     10.18302720	     -7.56898852	    -32.19624773	      0.60374092	      6.06701279	     -3.79352083	    -23.43826224	     -6.20078724	     72.99516216	     90.00000001	      0.00000000	      0.00000000	      1.34966292	    -20.90591134	      3.61417617	     60.78573751	     90.00000001	      0.00000000	      0.00000000
      1.29000000	     14.25311758	     -0.03698990	     -5.64907345	      0.46789360	      0.99107212	     -0.09637157	      3.47986021	     -1.11742619	     -1.88035198	     53.02665363	      0.37448015	      0.92548970	      7.40826202	     -9.48028900	     -7.56509531	    -15.27150947	      4.97101514	     -7.33614674	      7.70627790	      1.05165068	      0.13449992	      7.86675194	     10.97444439	     -7.56509531	    -32.66221185	      0.99650723	      6.19587340	     -4.08722284	    -23.34049344	     -6.90365160	     73.15806823	     90.00000001	      0.00000000	      0.00000000	      2.16196225	    -21.25847553	      3.97840165	     61.73863706	     90.00000001	      0.00000000	      0.00000000
      1.30000000	     14.30076880	     -0.06376803	     -5.37553330	      0.48077067	      0.99053319	     -0.09600694	      4.42739458	     -1.04549348	     -1.06987201	     50.64094395	      1.26030518	      0.88385121	      7.19488604	    -10.55934464	     -7.56226126	    -16.62302413	      4.94662330	     -7.07639880	      6.79654242	      1.09506842	      0.11862204	      8.25333799	     11.29608914	     -7.56226126	    -32.71801850	      1.12205585	      6.06056937	     -4.36960443	    -23.27923440	     -7.38611255	     73.21087307	     90.00000001	      0.00000000	      0.00000000	      2.96792339	    -21.56312206	      4.22474443	     62.49029358	     90.00000001	      0.00000000	      0.00000000
      1.31000000	     14.32782234	     -0.13151326	     -5.10367827	      0.49365675	      0.98967102	     -0.09536360	      5.30827290	     -0.88303549	     -0.37633929	     48.03099436	      1.93896096	      0.83829899	      6.75935015	    -11.61411026	     -7.55922613	    -17.92311600	      4.81527976	     -6.77943491	      5.98549381	      1.21583376	      0.10446657	      8.65295196	     11.44900508	     -7.55922613	    -32.75291827	      1.24746766	      5.95811952	     -4.66708365	    -23.14655165	     -7.84736511	     73.24379232	     90.00000001	      0.00000000	      0.00000000	      3.82006555	    -21.90003545	      4.54321194	     63.21366272	     90.00000001	      0.00000000	      0.00000000
      1.32000000	     14.36749850	     -0.13503344	     -4.83337039	      0.50646878	      0.98850723	     -0.09479836	      6.11550412	     -0.84069626	      0.02335472	     45.25987481	      2.39538215	      0.78993383	      6.51614338	    -12.12811442	     -7.55678531	    -19.16505823	      4.73920797	     -6.48844463	      5.30112515	      1.34376351	      0.09252209	      9.14917324	     11.68680006	     -7.55678531	    -32.81807935	      1.31858604	      5.83015788	     -4.90252135	    -23.02402702	     -8.35961917	     73.27642270	     90.00000001	      0.00000000	      0.00000000	      4.72248745	    -22.24309658	      4.94576724	     63.88603348	     90.00000001	      0.00000000	      0.00000000
      1.33000000	     14.38259357	     -0.11753075	     -4.55501180	      0.51929330	      0.98702639	     -0.09408186	      6.87405642	     -0.79840957	      0.14480242	     42.32917784	      2.56645415	      0.73878352	      6.20100626	    -12.26557337	     -7.55456916	    -20.30878174	      4.65736430	     -6.23298132	      4.77410039	      1.45534686	      0.08332377	      9.68595523	     11.88173357	     -7.55456916	    -32.85065761	      1.34554480	      5.69753238	     -5.16168354	    -22.84968298	     -8.85121478	     73.28457680	     90.00000001	      0.00000000	      0.00000000	      5.67402367	    -22.59751252	      5.41385750	     64.49381629	     90.00000001	      0.00000000	      0.00000000
      1.34000000	     14.16831715	      0.07837681	     -4.32007908	      0.53194725	      0.98491516	     -0.09340044	      7.90731968	     -0.97553970	      0.05082711	     39.41400451	      2.58637643	      0.68790415	      5.94432571	    -11.72501458	     -7.55333586	    -21.05038141	      4.78571663	     -5.99446283	      4.51181257	      1.46063027	      0.07874598	     10.38360300	     12.10428205	     -7.55333586	    -32.64559134	      1.19260083	      5.47337697	     -5.33624886	    -22.64772173	     -9.27922033	     73.13029124	     90.00000001	      0.00000000	      0.00000000	      6.59315674	    -22.94523816	      5.82851486	     65.05676410	     90.00000001	      0.00000000	      0.00000000
